<svg xmlns="http://www.w3.org/2000/svg" xmlns:xlink="http://www.w3.org/1999/xlink" viewBox="0 0 591.6 508.1">
    <defs>
        <style type="text/css">.cls-1{fill:none;}.cls-2{fill:#222;}.cls-3{fill:#e9e9e9;}.cls-4{clip-path:url(#clip-path);}</style>
        <clipPath id="clip-path">
            <path class="cls-1" d="M489.8,340.1V87.8H469.2a35.6,35.6,0,0,1-31.4-18.5l-7.1-12.7-17.6,3.8c-30.6,6.4-72.4,15.2-118,15.2-46.4,0-89.2-8.9-120.5-15.4l-16-3.3-7.1,12.5c-6.4,11.7-18.9,18.5-32.6,18.5H99.8v278h3.4c9.1,32,40.8,64,94.6,95.6a690.39,690.39,0,0,0,90.5,43.9l7.1,2.8,7.1-2.6A667.56,667.56,0,0,0,393,462.1c64.6-37.8,97.7-76.2,97.7-114.1C490.7,344.9,490.8,342.4,489.8,340.1Z"/>
        </clipPath>
    </defs>
    <g id="Layer_2" data-name="Layer 2">
        <g id="Layer_1-2" data-name="Layer 1">
            <path class="cls-2" d="M420.3,79.4c-31.8,6.6-76,16.2-125.2,16.2S200.8,86,169,79.4a56.77,56.77,0,0,1-50.1,29.3V346.6h1.5v1c0,73,174.9,139.2,174.9,139.2s174.9-66,174.9-139v-1.1h-1.1v-238A55.89,55.89,0,0,1,420.3,79.4Z"/>
            <path class="cls-2" d="M295.4,508.1l-7.1-2.7a654.82,654.82,0,0,1-90.5-43.7c-53.8-31.6-85.5-63.5-94.6-95.2H98.9V88.7h20a37.24,37.24,0,0,0,32.6-18.9l7.1-13,16,3.3c31.3,6.5,74.1,15.5,120.5,15.5,45.6,0,87.4-8.7,118-15.1l17.6-3.7,7.1,13a35.86,35.86,0,0,0,31.4,18.9h20V340.1a24.72,24.72,0,0,1,1.2,7.6c0,37.9-32.8,76.3-97.4,114.1a667.31,667.31,0,0,1-90.5,43.6ZM140.5,347.5c0,21.8,28.3,50.9,77.6,79.8a628.26,628.26,0,0,0,77.4,37.9c13.9-5.7,46.1-19.5,77.8-38.1,43.3-25.4,70.2-50.9,76-71.4V126a76.76,76.76,0,0,1-37.8-24.3c-31.2,6.4-71.5,13.9-116.3,13.9s-85.6-7.4-117.2-13.9a76.52,76.52,0,0,1-38.9,24.4V346.6H120.6v20A20.14,20.14,0,0,0,140.5,347.5Z"/>
            <path class="cls-3" d="M178.2,101.7c31.6,6.5,72.2,13.9,117.1,13.9s85.2-7.5,116.4-13.9a75.77,75.77,0,0,0,38,24.3V353.6c-4.6,20.8-31.9,47.1-76.5,73.3-31.7,18.6-63.9,32.5-77.8,38.2a626.06,626.06,0,0,1-77.3-38c-49.3-29-77.6-58-77.6-79.8V347a20,20,0,0,1-20,19.1v-20h18.9v-220a76.65,76.65,0,0,0,38.8-24.4M420.5,79.4C388.7,86,344.4,95.6,295.2,95.6S201.1,86,169.3,79.4a56.45,56.45,0,0,1-49.9,29.3V346.1h1.1v1.2c0,73,174.9,139.3,174.9,139.3s174.9-66.1,174.9-139.2v-1.3h-.7V108.7a56.37,56.37,0,0,1-49.1-29.3Z"/>
            <path class="cls-3" d="M178.2,101.7c31.6,6.5,72.2,13.9,117.1,13.9s85.2-7.5,116.4-13.9a75.77,75.77,0,0,0,38,24.3V353.6c-4.6,20.8-31.9,47.1-76.5,73.3-31.7,18.7-63.9,32.5-77.8,38.2-13.8-5.6-46-19.4-77.9-38-49.6-29-78.1-58-78.1-79.8V126.1a76.65,76.65,0,0,0,38.8-24.4M420.5,79.4C388.7,86,344.4,95.6,295.2,95.6S201.1,86,169.3,79.4a56.45,56.45,0,0,1-49.9,29.3V347.3c0,73,176,139.3,176,139.3s174.9-66.1,174.9-139.2v-1.3h-.7V108.7a56.37,56.37,0,0,1-49.1-29.3Z"/>
            <path class="cls-3" d="M183.4,118c31.7,6.3,69.5,12.6,111.9,12.6,42.1,0,79.7-6.3,111.2-12.6a91.61,91.61,0,0,0,28.2,18.6V351.7c-2.1,6.9-13,29.3-68.9,62.2-27.3,16.1-55.1,28.5-70.4,35-15.4-6.5-43.5-19-70.9-35.1-23.8-14-42.9-28.2-55.2-41.1-13.4-14.1-14.8-22.4-14.8-25.3v-.6h0V136.9A95,95,0,0,0,183.4,118m-1.7-5.4a85.94,85.94,0,0,1-32.3,20.8V347.3c0,13.7,19,39.4,72.5,70.8a632.73,632.73,0,0,0,73.4,36.2c15.1-6.3,44.3-19.2,72.9-36.1,47.3-27.8,67.5-51.3,71.3-65.8V133.3A85.74,85.74,0,0,1,408,112.7c-30.8,6.2-69.7,13-112.9,13s-82.2-6.8-113.4-13.1Z"/>
            <rect class="cls-2" x="110" y="197.9" width="372" height="72"/>
            <path class="cls-3" d="M119.2,221.7a.58.58,0,0,1,.6-.6h8.7a6.36,6.36,0,0,1,6.4,6.3,6.45,6.45,0,0,1-4.3,5.9l4,7.4a.52.52,0,0,1-.5.8h-3.9a.55.55,0,0,1-.5-.3l-3.9-7.7h-2V241a.65.65,0,0,1-.6.6h-3.4a.65.65,0,0,1-.6-.6Zm8.9,8.2a2.31,2.31,0,0,0,2.2-2.3,2.22,2.22,0,0,0-2.2-2.2h-4.3V230h4.3Z"/>
            <path class="cls-3" d="M141.4,221.7a.65.65,0,0,1,.6-.6h3.6a.65.65,0,0,1,.6.6v11.8a3.65,3.65,0,1,0,7.3,0V221.7a.58.58,0,0,1,.6-.6h3.6a.65.65,0,0,1,.6.6v12.1a8.35,8.35,0,0,1-16.7,0V221.7Z"/>
            <path class="cls-3" d="M168.4,225.4h-4.2a.65.65,0,0,1-.6-.6v-3.2a.58.58,0,0,1,.6-.6h13a.65.65,0,0,1,.6.6v3.2a.58.58,0,0,1-.6.6H173V241a.65.65,0,0,1-.6.6h-3.5a.65.65,0,0,1-.6-.6V225.4Z"/>
            <path class="cls-3" d="M192.5,220.9a11.22,11.22,0,0,1,7.1,2.7.53.53,0,0,1,.1.8l-2.3,2.5a.61.61,0,0,1-.8,0,5.44,5.44,0,0,0-3.8-1.4,5.89,5.89,0,0,0-5.8,5.9,5.8,5.8,0,0,0,5.8,5.8,6.3,6.3,0,0,0,2.6-.5V235h-1.8a.56.56,0,0,1-.6-.5v-2.9a.58.58,0,0,1,.6-.6h5.9a.56.56,0,0,1,.5.6v7.9a1.06,1.06,0,0,1-.2.5,14.8,14.8,0,0,1-7.3,1.9,10.5,10.5,0,0,1,0-21Z"/>
            <path class="cls-3" d="M206.9,221.7a.58.58,0,0,1,.6-.6h12.1a.65.65,0,0,1,.6.6v3.2a.58.58,0,0,1-.6.6h-8.1v3.6h6.7a.65.65,0,0,1,.6.6v3.2a.65.65,0,0,1-.6.6h-6.7v3.9h8.1a.65.65,0,0,1,.6.6v3.2a.58.58,0,0,1-.6.6H207.5a.65.65,0,0,1-.6-.6Z"/>
            <path class="cls-3" d="M227,221.7a.58.58,0,0,1,.6-.6h8.7a6.36,6.36,0,0,1,6.4,6.3,6.45,6.45,0,0,1-4.3,5.9l4,7.4a.52.52,0,0,1-.5.8H238a.55.55,0,0,1-.5-.3l-3.9-7.7h-2V241a.65.65,0,0,1-.6.6h-3.5a.65.65,0,0,1-.6-.6V221.7Zm8.9,8.2a2.31,2.31,0,0,0,2.2-2.3,2.22,2.22,0,0,0-2.2-2.2h-4.3V230h4.3Z"/>
            <path class="cls-3" d="M248.3,238.8l1.4-2.4c.2-.4.8-.3,1-.2a8.18,8.18,0,0,0,4.2,1.6,1.79,1.79,0,0,0,2-1.8q0-1.8-3-3c-2.5-1-5.7-3-5.7-6.5,0-2.9,2.3-5.8,6.8-5.8a10.82,10.82,0,0,1,6.3,2.2c.4.2.3.7.2.9l-1.5,2.3c-.2.3-.7.6-1,.4s-2.4-1.8-4.2-1.8a1.62,1.62,0,0,0-1.8,1.5c0,1.1.9,1.9,3.2,2.8s5.9,2.7,5.9,6.7c0,3-2.6,6.1-6.9,6.1a9.25,9.25,0,0,1-6.6-2.3C248.2,239.4,248.1,239.2,248.3,238.8Z"/>
            <path class="cls-3" d="M277.5,221.7a.65.65,0,0,1,.6-.6h3.6a.65.65,0,0,1,.6.6v11.8a3.65,3.65,0,1,0,7.3,0V221.7a.58.58,0,0,1,.6-.6h3.6a.65.65,0,0,1,.6.6v12.1a8.35,8.35,0,0,1-16.7,0V221.7Z"/>
            <path class="cls-3" d="M301.8,221.4a.56.56,0,0,1,.6-.5h.7l11.7,11.2h0V221.7a.58.58,0,0,1,.6-.6h3.5a.65.65,0,0,1,.6.6v19.7a.56.56,0,0,1-.6.5h-.5c-.1,0-.3-.1-.4-.1l-11.5-11.6h0v10.9a.58.58,0,0,1-.6.6h-3.5a.65.65,0,0,1-.6-.6Z"/>
            <path class="cls-3" d="M327.4,221.7a.65.65,0,0,1,.6-.6h3.5a.65.65,0,0,1,.6.6v19.4a.65.65,0,0,1-.6.6H328a.65.65,0,0,1-.6-.6Z"/>
            <path class="cls-3" d="M337.3,221.9a.55.55,0,0,1,.5-.8h3.9a.85.85,0,0,1,.5.3l4.8,10.7h.2l4.8-10.7a.85.85,0,0,1,.5-.3h3.9a.55.55,0,0,1,.5.8l-9.2,19.7a.55.55,0,0,1-.5.3h-.3a.55.55,0,0,1-.5-.3Z"/>
            <path class="cls-3" d="M362.2,221.7a.58.58,0,0,1,.6-.6h12.1a.65.65,0,0,1,.6.6v3.2a.58.58,0,0,1-.6.6h-8.1v3.6h6.7a.65.65,0,0,1,.6.6v3.2a.65.65,0,0,1-.6.6h-6.7v3.9h8.1a.65.65,0,0,1,.6.6v3.2a.58.58,0,0,1-.6.6H362.8a.65.65,0,0,1-.6-.6Z"/>
            <path class="cls-3" d="M382.3,221.7a.58.58,0,0,1,.6-.6h8.7a6.36,6.36,0,0,1,6.4,6.3,6.45,6.45,0,0,1-4.3,5.9l4,7.4a.52.52,0,0,1-.5.8h-3.9a.55.55,0,0,1-.5-.3l-3.9-7.7h-2V241a.65.65,0,0,1-.6.6h-3.5a.65.65,0,0,1-.6-.6V221.7Zm8.9,8.2a2.31,2.31,0,0,0,2.2-2.3,2.22,2.22,0,0,0-2.2-2.2h-4.3V230h4.3Z"/>
            <path class="cls-3" d="M403.6,238.8l1.4-2.4c.2-.4.8-.3,1-.2a8.18,8.18,0,0,0,4.2,1.6,1.79,1.79,0,0,0,2-1.8q0-1.8-3-3c-2.5-1-5.7-3-5.7-6.5,0-2.9,2.3-5.8,6.8-5.8a10.82,10.82,0,0,1,6.3,2.2c.4.2.3.7.2.9l-1.5,2.3c-.2.3-.7.6-1,.4s-2.4-1.8-4.2-1.8a1.62,1.62,0,0,0-1.8,1.5c0,1.1.9,1.9,3.2,2.8s5.9,2.7,5.9,6.7c0,3-2.6,6.1-6.9,6.1a9.25,9.25,0,0,1-6.6-2.3C403.5,239.4,403.4,239.2,403.6,238.8Z"/>
            <path class="cls-3" d="M423.7,221.7a.65.65,0,0,1,.6-.6h3.5a.65.65,0,0,1,.6.6v19.4a.65.65,0,0,1-.6.6h-3.5a.65.65,0,0,1-.6-.6Z"/>
            <path class="cls-3" d="M439,225.4h-4.2a.65.65,0,0,1-.6-.6v-3.2a.58.58,0,0,1,.6-.6h13a.65.65,0,0,1,.6.6v3.2a.58.58,0,0,1-.6.6h-4.2V241a.65.65,0,0,1-.6.6h-3.5a.65.65,0,0,1-.6-.6V225.4Z"/>
            <path class="cls-3" d="M458.9,231.8l-6.5-9.8a.52.52,0,0,1,.5-.8h3.8a.55.55,0,0,1,.5.3l4.1,6,4.1-6a.62.62,0,0,1,.5-.3h3.8a.53.53,0,0,1,.5.8l-6.5,9.7V241a.65.65,0,0,1-.6.6h-3.5a.65.65,0,0,1-.6-.6v-9.2Z"/>
            <polygon class="cls-3" points="295.4 385.9 300.1 393.6 308.9 395.8 303 402.6 303.7 411.6 295.4 408.2 287 411.6 287.7 402.6 281.9 395.8 290.6 393.6 295.4 385.9"/>
            <path class="cls-2" d="M275.5,13.5h39a9.71,9.71,0,0,1,9.7,9.7V178.7a9.71,9.71,0,0,1-9.7,9.7h-39a9.71,9.71,0,0,1-9.7-9.7V23.2A9.71,9.71,0,0,1,275.5,13.5Z"/>
            <path class="cls-2" d="M314.4,201.9h-39a23.22,23.22,0,0,1-23.2-23.2V23.2A23.22,23.22,0,0,1,275.4,0h39a23.22,23.22,0,0,1,23.2,23.2V178.7A23.22,23.22,0,0,1,314.4,201.9Zm-35.1-27h31.3V27H279.3Z"/>
            <polygon class="cls-2" points="304.3 151.7 294.9 167.9 285.6 151.7 304.3 151.7"/>
            <polygon class="cls-2" points="294.9 194.9 262.2 138.2 327.7 138.2 294.9 194.9"/>
            <path class="cls-2" d="M382.4,81.5v39a9.71,9.71,0,0,1-9.7,9.7H217.2a9.71,9.71,0,0,1-9.7-9.7v-39a9.71,9.71,0,0,1,9.7-9.7H372.7A9.71,9.71,0,0,1,382.4,81.5Z"/>
            <path class="cls-2" d="M372.7,143.6H217.2A23.22,23.22,0,0,1,194,120.4v-39a23.22,23.22,0,0,1,23.2-23.2H372.7a23.22,23.22,0,0,1,23.2,23.2v39A23.22,23.22,0,0,1,372.7,143.6ZM221,116.6H368.8V85.3H221Z"/>
            <polygon class="cls-2" points="244.2 110.3 228 100.9 244.2 91.6 244.2 110.3"/>
            <polygon class="cls-2" points="257.7 133.7 201 100.9 257.7 68.2 257.7 133.7"/>
            <polygon class="cls-2" points="285.6 50.2 294.9 34 304.3 50.2 285.6 50.2"/>
            <polygon class="cls-2" points="327.7 63.7 262.2 63.7 294.9 7 327.7 63.7"/>
            <polygon class="cls-2" points="345.7 91.6 361.9 100.9 345.7 110.3 345.7 91.6"/>
            <polygon class="cls-2" points="332.2 133.7 332.2 68.2 388.9 100.9 332.2 133.7"/>
            <path class="cls-2" d="M314.4,13.5a9.71,9.71,0,0,1,9.7,9.7V178.7a9.71,9.71,0,0,1-9.7,9.7h-39a9.71,9.71,0,0,1-9.7-9.7V23.2a9.71,9.71,0,0,1,9.7-9.7h39m0-13.5h-39a23.22,23.22,0,0,0-23.2,23.2V178.7a23.22,23.22,0,0,0,23.2,23.2h39a23.22,23.22,0,0,0,23.2-23.2V23.2A23.22,23.22,0,0,0,314.4,0Z"/>
            <path class="cls-2" d="M304.3,151.7l-9.4,16.2-9.4-16.2h18.8m23.4-13.5H262.2l11.7,20.3,9.4,16.2L295,195l11.7-20.3,9.4-16.2,11.6-20.3Z"/>
            <path class="cls-2" d="M372.7,71.8a9.71,9.71,0,0,1,9.7,9.7v39a9.71,9.71,0,0,1-9.7,9.7H217.2a9.71,9.71,0,0,1-9.7-9.7v-39a9.71,9.71,0,0,1,9.7-9.7H372.7m0-13.5H217.2A23.22,23.22,0,0,0,194,81.5v39a23.22,23.22,0,0,0,23.2,23.2H372.7a23.22,23.22,0,0,0,23.2-23.2v-39a23.22,23.22,0,0,0-23.2-23.2Z"/>
            <path class="cls-2" d="M244.2,91.6v18.7L228,100.9l16.2-9.3m13.5-23.4L237.4,79.9l-16.2,9.4L200.9,101l20.3,11.7,16.2,9.4,20.3,11.7V68.2Z"/>
            <path class="cls-2" d="M294.9,34l9.4,16.2H285.6L294.9,34m0-27L283.2,27.3l-9.4,16.2L262.1,63.8h65.5L315.9,43.5l-9.4-16.2L294.9,7Z"/>
            <path class="cls-2" d="M345.7,91.6l16.2,9.4-16.2,9.4V91.6M332.2,68.2v65.5L352.5,122l16.2-9.4L389,100.9,368.7,89.2l-16.2-9.4L332.2,68.2Z"/>
            <path class="cls-3" d="M275.5,13.5h39a9.71,9.71,0,0,1,9.7,9.7V178.7a9.71,9.71,0,0,1-9.7,9.7h-39a9.71,9.71,0,0,1-9.7-9.7V23.2A9.71,9.71,0,0,1,275.5,13.5Z"/>
            <polygon class="cls-2" points="304.3 151.7 294.9 167.9 285.6 151.7 304.3 151.7"/>
            <path class="cls-3" d="M382.4,81.5v39a9.71,9.71,0,0,1-9.7,9.7H217.2a9.71,9.71,0,0,1-9.7-9.7v-39a9.71,9.71,0,0,1,9.7-9.7H372.7A9.71,9.71,0,0,1,382.4,81.5Z"/>
            <polygon class="cls-2" points="244.2 110.3 228 100.9 244.2 91.6 244.2 110.3"/>
            <polygon class="cls-2" points="285.6 50.2 294.9 34 304.3 50.2 285.6 50.2"/>
            <polygon class="cls-2" points="345.7 91.6 361.9 100.9 345.7 110.3 345.7 91.6"/>
            <circle class="cls-2" cx="295" cy="100.6" r="18.6"/>
            <g class="cls-4">
                <path class="cls-2" d="M0,352.7q20.55,14.25,40.5,29-15.15,19.65-29.7,39.4c28.3-4.5,56.6-8.3,85.1-11.4-2.5-22.9-5.1-45.9-7.6-68.8C58.8,344.1,29.3,348.1,0,352.7Z"/>
                <path class="cls-2" d="M59.2,391.1c12.4,6.1,24.6,12.3,36.7,18.6-1.1-9.6-2.1-19.1-3.2-28.7C92.6,380.9,58.6,391.7,59.2,391.1Z"/>
                <path class="cls-2" d="M591.6,352.7q-20.55,14.25-40.5,29,15.15,19.65,29.7,39.4c-28.3-4.5-56.6-8.3-85.1-11.4,2.5-22.9,5.1-45.9,7.6-68.8C532.8,344.1,562.3,348.1,591.6,352.7Z"/>
                <path class="cls-2" d="M532.4,391.1c-12.4,6.1-24.6,12.3-36.7,18.6,1.1-9.6,2.1-19.1,3.2-28.7C499,380.9,533,391.7,532.4,391.1Z"/>
                <path class="cls-2" d="M532.4,391.2a1846.18,1846.18,0,0,0-473.8.1c-4.3-33.4-8.7-66.8-13-100.2a1948.22,1948.22,0,0,1,499.7-.1Z"/>
            </g>
            <path class="cls-3" d="M0,338.7q20.55,14.25,40.5,29-15.15,19.65-29.7,39.4c28.3-4.5,56.6-8.3,85.1-11.4-2.5-22.9-5.1-45.9-7.6-68.8C58.8,330.1,29.3,334.1,0,338.7Z"/>
            <path class="cls-2" d="M59.2,377.1c12.4,6.1,24.6,12.3,36.7,18.6-1.1-9.6-2.1-19.1-3.2-28.7C92.6,366.9,58.6,377.7,59.2,377.1Z"/>
            <path class="cls-3" d="M591.6,338.7q-20.55,14.25-40.5,29,15.15,19.65,29.7,39.4c-28.3-4.5-56.6-8.3-85.1-11.4,2.5-22.9,5.1-45.9,7.6-68.8C532.8,330.1,562.3,334.1,591.6,338.7Z"/>
            <path class="cls-2" d="M532.4,377.1c-12.4,6.1-24.6,12.3-36.7,18.6,1.1-9.6,2.1-19.1,3.2-28.7C499,366.9,533,377.7,532.4,377.1Z"/>
            <path class="cls-3" d="M532.4,377.2a1846.18,1846.18,0,0,0-473.8.1c-4.3-33.4-8.7-66.8-13-100.2a1948.22,1948.22,0,0,1,499.7-.1Z"/>
            <path class="cls-2" d="M140.2,342.1q-2.7-30.15-5.5-60.3c14.9-1.3,29.8-2.5,44.8-3.5.3,4.5.4,6.8.7,11.3-10.4.7-20.7,1.4-31.1,2.3.4,5.1.6,7.7,1.1,12.8,10.1-.8,20.1-1.6,30.2-2.2.3,4.5.4,6.8.7,11.3-10,.6-20,1.4-30,2.2.5,5.5.7,8.2,1.1,13.7,10.1-.8,20.3-1.6,30.4-2.2.3,4.5.4,6.8.7,11.3C169,339.7,154.6,340.9,140.2,342.1Z"/>
            <path class="cls-2" d="M190.1,332.6c1.8-3.3,2.7-5,4.6-8.4a26.59,26.59,0,0,0,15.7,5.2c5.1-.2,7.4-2.3,7.3-5.1-.1-3-4.3-3.6-9.2-4.3-7.7-1.1-17.8-2.4-18.4-12.9-.4-7.3,5.9-14.2,17.8-14.8a28.94,28.94,0,0,1,18.6,5.2c-1.8,3.2-2.7,4.8-4.5,8.1-2.8-2.7-8.1-4.7-13.6-4.5-4.3.2-7,2.3-6.9,4.7s3.7,3.1,8.8,3.8c7.8,1.1,18.2,2.8,18.6,13.7.3,8-6.3,14.3-18.6,14.9C202.6,338.7,195,336.6,190.1,332.6Z"/>
            <path class="cls-2" d="M250.5,330.1c.2,8.9.3,13.4.6,22.3-4.6.1-6.9.2-11.5.3-.7-20.2-1.3-40.4-2-60.5,4.8-.2,7.2-.2,12-.3.1,2.2.1,3.3.1,5.5a17.38,17.38,0,0,1,13.9-6.9c12.1,0,20.4,11.1,20.3,22.7-.1,11.2-6.9,23.1-19.5,23.3A17.3,17.3,0,0,1,250.5,330.1Zm21-16.8c-.1-7.5-4.8-12.7-11.6-12.5-3.8.1-8.2,2.4-10.1,5.2.2,6.2.2,9.3.4,15.5,2,2.7,6.4,4.8,10.2,4.8C267.2,326.2,271.6,321,271.5,313.3Z"/>
            <path class="cls-2" d="M290.5,313.2c0-12.3,10.9-23.6,24-22.9s23.9,10.2,23.5,23.4c-.3,13-11,22.2-24.1,22.6S290.5,325.3,290.5,313.2Zm35.2.3c.1-6.8-4-12.8-11.4-12.9s-11.5,5.8-11.6,12.6,4,12.8,11.3,12.9S325.6,320.4,325.7,313.5Z"/>
            <path class="cls-2" d="M347,336c.5-14.6.9-29.2,1.4-43.8,4.8.1,7.2.2,12,.4-.1,2.4-.1,3.6-.2,6a19.68,19.68,0,0,1,14.8-6.5c-.2,4.5-.3,6.7-.5,11.2a14.13,14.13,0,0,0-3.3-.4c-3.9-.2-9.3,1.8-11.3,4.5-.4,9.6-.7,19.3-1.1,28.9C354,336.2,351.7,336.1,347,336Z"/>
            <path class="cls-2" d="M383.8,326.6c.5-9.1.7-13.7,1.2-22.9-3-.2-4.5-.2-7.5-.4.2-4,.3-6,.5-10.1,3,.1,4.5.2,7.5.4.3-4.8.4-7.2.6-12,4.8.3,7.3.4,12.1.7-.3,4.8-.4,7.2-.7,12,3.7.2,5.5.3,9.2.6-.3,4-.4,6-.6,10.1-3.7-.2-5.5-.3-9.2-.6-.5,7.9-.7,11.9-1.2,19.8-.2,2.7,1.2,4.9,3.8,5.1a6.33,6.33,0,0,0,4.1-1c.8,3.5,1.2,5.3,1.9,8.9-1.8,1.4-5,2.5-9.9,2.2C387.6,338.8,383.4,334.4,383.8,326.6Z"/>
            <path class="cls-2" d="M409.4,333.3c2.2-3.1,3.4-4.6,5.6-7.7a25.82,25.82,0,0,0,14.9,7.1c5.1.4,7.6-1.4,7.8-4.1.3-3-3.8-4.1-8.6-5.4-7.6-2-17.4-4.6-16.6-15.2.5-7.3,7.6-13.3,19.6-12.4a29.51,29.51,0,0,1,17.8,7.5c-2.2,3-3.3,4.5-5.5,7.4-2.5-3-7.4-5.7-12.9-6.2-4.3-.3-7.3,1.4-7.4,3.8s3.3,3.6,8.2,4.9c7.6,2.1,17.7,5.1,16.7,16-.7,8-8.1,13.4-20.4,12.4C421,341,413.8,337.9,409.4,333.3Z"/>
        </g>
    </g>
</svg>