<?xml version="1.0" encoding="utf-8"?>
<!-- Generator: Adobe Illustrator 24.3.0, SVG Export Plug-In . SVG Version: 6.00 Build 0)  -->
<svg version="1.1" id="Layer_1" xmlns="http://www.w3.org/2000/svg" xmlns:xlink="http://www.w3.org/1999/xlink" x="0px" y="0px"
	 viewBox="0 0 682 646" style="enable-background:new 0 0 682 646;" xml:space="preserve">
<style type="text/css">
	.st0{fill:#C94949;}
	.st1{fill:#EDF1F7;}
	.st2{clip-path:url(#SVGID_2_);}
</style>
<g>
	<g>
		<path class="st0" d="M484.5,122.8c-36.7,7.6-87.6,18.7-144.3,18.7s-108.7-11.1-145.4-18.7c-11.1,20.2-32.6,33.8-57.8,33.8v274.3
			h1.7c0,0,0,0.5,0,1.2c0,84.2,201.6,160.5,201.6,160.5S542,516.4,542,432.2c0-0.6,0-1.3,0-1.3h-1.3V156.6
			C516.8,156.6,495.6,143,484.5,122.8z"/>
		<path class="st0" d="M340.5,617l-8.2-3.1c-2.2-0.8-52.8-20.1-104.3-50.4c-62-36.4-98.6-73.2-109.1-109.7h-5V133.5h23.1
			c15.8,0,30.1-8.4,37.6-21.8l8.2-15l18.4,3.8c36.1,7.5,85.4,17.9,138.9,17.9c52.6,0,100.8-10,136-17.4l20.3-4.3l8.2,15
			c7.4,13.5,21.2,21.8,36.2,21.8H564v289.8c0.8,2.5,1.4,5.4,1.4,8.8c0,43.7-37.8,88-112.3,131.5c-51.5,30.2-102.3,49.5-104.3,50.3
			L340.5,617z M162,431.9c0,25.1,32.6,58.7,89.5,92c36.5,21.4,73.3,37.2,89.2,43.7c16-6.6,53.1-22.5,89.7-43.9
			c49.9-29.3,80.9-58.7,87.6-82.3V176.5c-16.8-4.7-32-14.4-43.6-28c-36,7.4-82.4,16-134.1,16c-51.8,0-98.7-8.5-135.1-16
			c-11.6,13.7-27.3,23.5-44.8,28.1v254.2H139v23.1C152.4,453.9,161.7,442.5,162,431.9z"/>
	</g>
	<g>
		<path class="st1" d="M205.4,148.5c36.4,7.5,83.2,16,135,16c51.6,0,98.2-8.6,134.2-16c11.5,13.6,26.7,23.4,43.8,28v253.7v8.6
			c-5.3,24-36.8,54.3-88.2,84.5c-36.5,21.4-73.7,37.5-89.7,44c-15.9-6.5-52.7-22.4-89.1-43.8c-56.8-33.4-89.5-66.9-89.5-92
			c0-0.1,0-0.2,0-0.3c-0.3,12.1-10.7,22-23.1,22v-23.1h21.8V176.7C178.1,172,193.8,162.2,205.4,148.5 M484.8,122.8
			c-36.7,7.6-87.7,18.7-144.4,18.7s-108.5-11.1-145.1-18.7c-11.1,20.2-32.4,33.8-57.5,33.8v273.7h1.3c0,0,0,0.7,0,1.4
			c0,84.2,201.6,160.6,201.6,160.6S542.2,516,542.2,431.8c0-0.6,0-1.5,0-1.5h-0.8V156.6C517.4,156.6,495.8,143,484.8,122.8
			L484.8,122.8z"/>
	</g>
	<g>
		<path class="st1" d="M205.4,148.5c36.4,7.5,83.2,16,135,16c51.6,0,98.2-8.6,134.2-16c11.5,13.6,26.7,23.4,43.8,28v253.7v8.6
			c-5.3,24-36.8,54.3-88.2,84.5c-36.5,21.6-73.7,37.5-89.7,44c-15.9-6.5-53-22.4-89.8-43.8c-57.2-33.4-90-66.9-90-92v-0.1v-0.1v-1.3
			V176.7C178.1,172,193.8,162.2,205.4,148.5 M484.8,122.8c-36.7,7.6-87.7,18.7-144.4,18.7s-108.5-11.1-145.1-18.7
			c-11.1,20.2-32.4,33.8-57.5,33.8v273.7v1.4c0,84.2,202.9,160.6,202.9,160.6S542.2,516,542.2,431.8c0-0.6,0-1.5,0-1.5h-0.8V156.6
			C517.4,156.6,495.8,143,484.8,122.8L484.8,122.8z"/>
	</g>
	<g id="XMLID_3_">
		<g>
			<path class="st1" d="M211.4,167.3c36.5,7.3,80.1,14.5,129,14.5c48.5,0,91.9-7.3,128.2-14.5c9.3,9.1,20.5,16.4,32.5,21.4v241.5
				v6.5c-2.4,8-15,33.8-79.4,71.7c-31.5,18.6-63.5,32.9-81.2,40.3c-17.8-7.5-50.1-21.9-81.7-40.5c-27.4-16.1-49.5-32.5-63.6-47.4
				c-15.4-16.3-17.1-25.8-17.1-29.2v-0.2v-0.2v-0.2l0,0v-0.9V189.1C190.3,184,201.7,176.5,211.4,167.3 M209.5,161.1
				c-10.5,10.7-23.2,18.9-37.2,24v245v1.2v0.2v0.2c0,15.8,21.9,45.4,83.6,81.6c33.3,19.5,67.1,34.5,84.6,41.7
				c17.4-7.3,51.1-22.1,84-41.6c54.5-32,77.8-59.1,82.2-75.9v-7.3V185c-13.7-5.1-26.1-13.3-36.3-23.7c-35.5,7.1-80.4,15-130.2,15
				C290.5,176.1,245.4,168.4,209.5,161.1L209.5,161.1z"/>
		</g>
	</g>
	<g>
		<rect x="126.8" y="259.4" class="st0" width="428.8" height="83"/>
	</g>
	<g>
		<path class="st1" d="M137.4,286.9c0-0.3,0.2-0.7,0.7-0.7h10c4,0,7.4,3.2,7.4,7.3c0,3.1-2.1,5.6-5,6.8l4.6,8.5
			c0.2,0.5,0,0.9-0.6,0.9h-4.5c-0.2,0-0.5-0.1-0.6-0.3l-4.5-8.9h-2.3v8.6c0,0.3-0.3,0.7-0.7,0.7h-3.9c-0.3,0-0.7-0.3-0.7-0.7V286.9z
			 M147.7,296.3c1.4,0,2.5-1.3,2.5-2.7c0-1.4-1.2-2.5-2.5-2.5h-5v5.3h5V296.3z"/>
		<path class="st1" d="M163,286.9c0-0.3,0.3-0.7,0.7-0.7h4.2c0.3,0,0.7,0.3,0.7,0.7v13.6c0,2.3,1.7,4.3,4.2,4.3
			c2.4,0,4.3-1.8,4.3-4.3v-13.6c0-0.3,0.2-0.7,0.7-0.7h4.2c0.3,0,0.7,0.3,0.7,0.7v13.9c0,5.1-4.3,9.3-9.7,9.3
			c-5.3,0-9.6-4.3-9.6-9.3v-13.9H163z"/>
		<path class="st1" d="M194.1,291.1h-4.8c-0.3,0-0.7-0.3-0.7-0.7v-3.7c0-0.3,0.2-0.7,0.7-0.7h15c0.3,0,0.7,0.3,0.7,0.7v3.7
			c0,0.3-0.2,0.7-0.7,0.7h-4.8v18c0,0.3-0.3,0.7-0.7,0.7h-4c-0.3,0-0.7-0.3-0.7-0.7v-18H194.1z"/>
		<path class="st1" d="M221.9,285.9c2.9,0,5.9,1.2,8.2,3.1c0.3,0.2,0.3,0.7,0.1,0.9l-2.7,2.9c-0.2,0.2-0.7,0.2-0.9,0
			c-1.3-1.2-2.8-1.6-4.4-1.6c-3.7,0-6.7,3.1-6.7,6.8c0,3.7,3,6.7,6.7,6.7c0.9,0,2-0.1,3-0.6v-2h-2.1c-0.3,0-0.7-0.2-0.7-0.6v-3.3
			c0-0.3,0.2-0.7,0.7-0.7h6.8c0.3,0,0.6,0.3,0.6,0.7v9.1c0,0.1-0.1,0.5-0.2,0.6c0,0-3.5,2.2-8.4,2.2c-6.7,0-12.1-5.3-12.1-12.1
			C209.8,291.4,215.2,285.9,221.9,285.9z"/>
		<path class="st1" d="M238.5,286.9c0-0.3,0.2-0.7,0.7-0.7h13.9c0.3,0,0.7,0.3,0.7,0.7v3.7c0,0.3-0.2,0.7-0.7,0.7h-9.3v4.2h7.7
			c0.3,0,0.7,0.3,0.7,0.7v3.7c0,0.3-0.3,0.7-0.7,0.7h-7.7v4.5h9.3c0.3,0,0.7,0.3,0.7,0.7v3.7c0,0.3-0.2,0.7-0.7,0.7h-13.9
			c-0.3,0-0.7-0.3-0.7-0.7V286.9z"/>
		<path class="st1" d="M261.7,286.9c0-0.3,0.2-0.7,0.7-0.7h10c4,0,7.4,3.2,7.4,7.3c0,3.1-2.1,5.6-5,6.8l4.6,8.5
			c0.2,0.5,0,0.9-0.6,0.9h-4.5c-0.2,0-0.5-0.1-0.6-0.3l-4.5-8.9H267v8.6c0,0.3-0.3,0.7-0.7,0.7h-4c-0.3,0-0.7-0.3-0.7-0.7v-22.2
			H261.7z M271.9,296.3c1.4,0,2.5-1.3,2.5-2.7c0-1.4-1.2-2.5-2.5-2.5h-5v5.3h5V296.3z"/>
		<path class="st1" d="M286.2,306.6l1.6-2.8c0.2-0.5,0.9-0.3,1.2-0.2c0.1,0.1,2.5,1.8,4.8,1.8c1.4,0,2.3-0.8,2.3-2.1
			c0-1.4-1.2-2.5-3.5-3.5c-2.9-1.2-6.6-3.5-6.6-7.5c0-3.3,2.7-6.7,7.8-6.7c3.5,0,6.2,1.7,7.3,2.5c0.5,0.2,0.3,0.8,0.2,1l-1.7,2.7
			c-0.2,0.3-0.8,0.7-1.2,0.5c-0.3-0.1-2.8-2.1-4.8-2.1c-1.3,0-2.1,0.8-2.1,1.7c0,1.3,1,2.2,3.7,3.2c2.7,1,6.8,3.1,6.8,7.7
			c0,3.5-3,7-8,7c-4.4,0-6.8-1.8-7.6-2.7C286.1,307.3,286,307,286.2,306.6z"/>
		<path class="st1" d="M319.9,286.9c0-0.3,0.3-0.7,0.7-0.7h4.2c0.3,0,0.7,0.3,0.7,0.7v13.6c0,2.3,1.7,4.3,4.2,4.3s4.3-1.8,4.3-4.3
			v-13.6c0-0.3,0.2-0.7,0.7-0.7h4.2c0.3,0,0.7,0.3,0.7,0.7v13.9c0,5.1-4.3,9.3-9.7,9.3c-5.3,0-9.6-4.3-9.6-9.3v-13.9H319.9z"/>
		<path class="st1" d="M347.9,286.5c0-0.3,0.3-0.6,0.7-0.6h0.8l13.5,12.9l0,0v-12c0-0.3,0.2-0.7,0.7-0.7h4c0.3,0,0.7,0.3,0.7,0.7
			v22.7c0,0.3-0.3,0.6-0.7,0.6h-0.6c-0.1,0-0.3-0.1-0.5-0.1l-13.3-13.4l0,0v12.6c0,0.3-0.2,0.7-0.7,0.7h-4c-0.3,0-0.7-0.3-0.7-0.7
			L347.9,286.5z"/>
		<path class="st1" d="M377.4,286.9c0-0.3,0.3-0.7,0.7-0.7h4c0.3,0,0.7,0.3,0.7,0.7v22.4c0,0.3-0.3,0.7-0.7,0.7h-4
			c-0.3,0-0.7-0.3-0.7-0.7V286.9z"/>
		<path class="st1" d="M388.8,287.1c-0.2-0.5,0.1-0.9,0.6-0.9h4.5c0.2,0,0.5,0.2,0.6,0.3l5.5,12.3h0.2l5.5-12.3
			c0.1-0.1,0.3-0.3,0.6-0.3h4.5c0.5,0,0.8,0.5,0.6,0.9l-10.6,22.7c-0.1,0.2-0.3,0.3-0.6,0.3h-0.3c-0.2,0-0.5-0.1-0.6-0.3
			L388.8,287.1z"/>
		<path class="st1" d="M417.5,286.9c0-0.3,0.2-0.7,0.7-0.7h13.9c0.3,0,0.7,0.3,0.7,0.7v3.7c0,0.3-0.2,0.7-0.7,0.7h-9.3v4.2h7.7
			c0.3,0,0.7,0.3,0.7,0.7v3.7c0,0.3-0.3,0.7-0.7,0.7h-7.7v4.5h9.3c0.3,0,0.7,0.3,0.7,0.7v3.7c0,0.3-0.2,0.7-0.7,0.7h-13.9
			c-0.3,0-0.7-0.3-0.7-0.7V286.9z"/>
		<path class="st1" d="M440.7,286.9c0-0.3,0.2-0.7,0.7-0.7h10c4,0,7.4,3.2,7.4,7.3c0,3.1-2.1,5.6-5,6.8l4.6,8.5
			c0.2,0.5,0,0.9-0.6,0.9h-4.5c-0.2,0-0.5-0.1-0.6-0.3l-4.5-8.9H446v8.6c0,0.3-0.3,0.7-0.7,0.7h-4c-0.3,0-0.7-0.3-0.7-0.7v-22.2
			H440.7z M451,296.3c1.4,0,2.5-1.3,2.5-2.7c0-1.4-1.2-2.5-2.5-2.5h-5v5.3h5V296.3z"/>
		<path class="st1" d="M465.3,306.6l1.6-2.8c0.2-0.5,0.9-0.3,1.2-0.2c0.1,0.1,2.5,1.8,4.8,1.8c1.4,0,2.3-0.8,2.3-2.1
			c0-1.4-1.2-2.5-3.5-3.5c-2.9-1.2-6.6-3.5-6.6-7.5c0-3.3,2.7-6.7,7.8-6.7c3.5,0,6.2,1.7,7.3,2.5c0.5,0.2,0.3,0.8,0.2,1l-1.7,2.7
			c-0.2,0.3-0.8,0.7-1.2,0.5c-0.3-0.1-2.8-2.1-4.8-2.1c-1.3,0-2.1,0.8-2.1,1.7c0,1.3,1,2.2,3.7,3.2c2.7,1,6.8,3.1,6.8,7.7
			c0,3.5-3,7-8,7c-4.4,0-6.8-1.8-7.6-2.7C465.2,307.3,465,307,465.3,306.6z"/>
		<path class="st1" d="M488.4,286.9c0-0.3,0.3-0.7,0.7-0.7h4c0.3,0,0.7,0.3,0.7,0.7v22.4c0,0.3-0.3,0.7-0.7,0.7h-4
			c-0.3,0-0.7-0.3-0.7-0.7V286.9z"/>
		<path class="st1" d="M506.1,291.1h-4.8c-0.3,0-0.7-0.3-0.7-0.7v-3.7c0-0.3,0.2-0.7,0.7-0.7h15c0.3,0,0.7,0.3,0.7,0.7v3.7
			c0,0.3-0.2,0.7-0.7,0.7h-4.8v18c0,0.3-0.3,0.7-0.7,0.7h-4c-0.3,0-0.7-0.3-0.7-0.7v-18H506.1z"/>
		<path class="st1" d="M529,298.5l-7.5-11.3c-0.2-0.5,0-0.9,0.6-0.9h4.4c0.2,0,0.5,0.1,0.6,0.3l4.7,6.9l4.7-6.9
			c0.1-0.1,0.2-0.3,0.6-0.3h4.4c0.6,0,0.8,0.6,0.6,0.9l-7.5,11.2v10.7c0,0.3-0.3,0.7-0.7,0.7h-4c-0.3,0-0.7-0.3-0.7-0.7v-10.6H529z"
			/>
	</g>
	<g>
		<polygon class="st1" points="340.5,476.2 346,485 356.1,487.6 349.3,495.4 350.1,505.8 340.5,501.9 330.9,505.8 331.7,495.4 
			325,487.6 335,485 		"/>
	</g>
	<g>
		<g>
			<g>
				<path class="st0" d="M317.6,46.8h45c6.1,0,11.2,5,11.2,11.2v179.3c0,6.1-5,11.2-11.2,11.2h-45c-6.1,0-11.2-5-11.2-11.2V58
					C306.4,51.9,311.4,46.8,317.6,46.8z"/>
				<path class="st0" d="M362.4,264h-45c-14.8,0-26.7-12-26.7-26.7V58c0-14.8,12-26.7,26.7-26.7h45c14.8,0,26.7,12,26.7,26.7v179.3
					C389.2,252,377.2,264,362.4,264z M322,232.9h36.1V62.4H322V232.9z"/>
			</g>
			<g>
				<polygon class="st0" points="350.8,206.2 340,224.8 329.2,206.2 				"/>
				<polygon class="st0" points="340,256 302.3,190.6 377.8,190.6 				"/>
			</g>
			<g>
				<path class="st0" d="M440.8,125.2v45c0,6.1-5,11.2-11.2,11.2H250.4c-6.1,0-11.2-5-11.2-11.2v-45c0-6.1,5-11.2,11.2-11.2h179.3
					C435.8,114.1,440.8,119,440.8,125.2z"/>
				<path class="st0" d="M429.7,196.8H250.4c-14.8,0-26.7-12-26.7-26.7v-45c0-14.8,12-26.7,26.7-26.7h179.3
					c14.8,0,26.7,12,26.7,26.7v45C456.4,184.8,444.4,196.8,429.7,196.8z M254.8,165.7h170.4v-36.1H254.8V165.7z"/>
			</g>
			<g>
				<polygon class="st0" points="281.5,158.4 262.8,147.6 281.5,136.9 				"/>
				<polygon class="st0" points="297.1,185.4 231.7,147.6 297.1,109.9 				"/>
			</g>
			<g>
				<polygon class="st0" points="329.2,89.2 340,70.5 350.8,89.2 				"/>
				<polygon class="st0" points="377.8,104.7 302.3,104.7 340,39.4 				"/>
			</g>
			<g>
				<polygon class="st0" points="398.5,136.9 417.2,147.6 398.5,158.4 				"/>
				<polygon class="st0" points="383,185.4 383,109.9 448.3,147.6 				"/>
			</g>
		</g>
		<g>
			<g>
				<path class="st0" d="M362.4,46.8c6.1,0,11.2,5,11.2,11.2v179.3c0,6.1-5,11.2-11.2,11.2h-45c-6.1,0-11.2-5-11.2-11.2V58
					c0-6.1,5-11.2,11.2-11.2L362.4,46.8 M362.4,31.3h-45c-14.8,0-26.7,12-26.7,26.7v179.3c0,14.8,12,26.7,26.7,26.7h45
					c14.8,0,26.7-12,26.7-26.7V58C389.2,43.3,377.2,31.3,362.4,31.3L362.4,31.3z"/>
			</g>
			<g>
				<path class="st0" d="M350.8,206.2L340,224.8l-10.8-18.7H350.8 M377.8,190.6h-27h-21.6h-27l13.5,23.4l10.8,18.7l13.5,23.4
					l13.5-23.4l10.8-18.7L377.8,190.6L377.8,190.6z"/>
			</g>
			<g>
				<path class="st0" d="M429.7,114.1c6.1,0,11.2,5,11.2,11.2v45c0,6.1-5,11.2-11.2,11.2H250.4c-6.1,0-11.2-5-11.2-11.2v-45
					c0-6.1,5-11.2,11.2-11.2H429.7 M429.7,98.5H250.4c-14.8,0-26.7,12-26.7,26.7v45c0,14.8,12,26.7,26.7,26.7h179.3
					c14.8,0,26.7-12,26.7-26.7v-45C456.4,110.5,444.4,98.5,429.7,98.5L429.7,98.5z"/>
			</g>
			<g>
				<path class="st0" d="M281.5,136.9v21.6l-18.7-10.8L281.5,136.9 M297.1,109.9l-23.4,13.5L255,134.2l-23.4,13.5l23.4,13.5
					l18.7,10.8l23.4,13.5v-27V137V109.9L297.1,109.9z"/>
			</g>
			<g>
				<path class="st0" d="M340,70.5l10.8,18.7h-21.6L340,70.5 M340,39.4l-13.5,23.4l-10.8,18.7l-13.5,23.4h27h21.6h27l-13.5-23.4
					l-10.8-18.7L340,39.4L340,39.4z"/>
			</g>
			<g>
				<path class="st0" d="M398.5,136.9l18.7,10.8l-18.7,10.8V136.9 M383,109.9v27v21.6v27l23.4-13.5l18.7-10.8l23.4-13.5L425,134.1
					l-18.7-10.8L383,109.9L383,109.9z"/>
			</g>
		</g>
		<g>
			<g>
				<path class="st1" d="M317.6,46.8h45c6.1,0,11.2,5,11.2,11.2v179.3c0,6.1-5,11.2-11.2,11.2h-45c-6.1,0-11.2-5-11.2-11.2V58
					C306.4,51.9,311.4,46.8,317.6,46.8z"/>
			</g>
			<g>
				<polygon class="st0" points="350.8,206.2 340,224.8 329.2,206.2 				"/>
			</g>
			<g>
				<path class="st1" d="M440.8,125.2v45c0,6.1-5,11.2-11.2,11.2H250.4c-6.1,0-11.2-5-11.2-11.2v-45c0-6.1,5-11.2,11.2-11.2h179.3
					C435.8,114.1,440.8,119,440.8,125.2z"/>
			</g>
			<g>
				<polygon class="st0" points="281.5,158.4 262.8,147.6 281.5,136.9 				"/>
			</g>
			<g>
				<polygon class="st0" points="329.2,89.2 340,70.5 350.8,89.2 				"/>
			</g>
			<g>
				<polygon class="st0" points="398.5,136.9 417.2,147.6 398.5,158.4 				"/>
			</g>
		</g>
		<g>
			<circle class="st0" cx="340.1" cy="147.3" r="21.4"/>
		</g>
	</g>
	<g>
		<g>
			<defs>
				<path id="SVGID_1_" d="M563.5,423.4V132.5h-22.6c-14.9,0-28.8-7.8-36.2-21.3l-8.2-14.6l-20.3,4.4c-35.3,7.4-83.5,17.5-136,17.5
					c-53.5,0-102.8-10.3-138.9-17.8l-18.4-3.8l-8.2,14.4c-7.4,13.5-21.8,21.3-37.6,21.3h-23.2v320.5h5.1
					c10.5,36.9,47,73.8,109.1,110.2c51.5,30.2,102.3,49.8,104.3,50.6l8.2,3.2l8.2-3c2.2-0.8,52.8-20.1,104.3-50.1
					c74.5-43.6,112.1-87.8,112.1-131.5C565.1,428.9,564.6,426,563.5,423.4z"/>
			</defs>
			<clipPath id="SVGID_2_">
				<use xlink:href="#SVGID_1_"  style="overflow:visible;"/>
			</clipPath>
			<g class="st2">
				<g>
					<path class="st0" d="M0,437.9c15.8,11,31.4,22.1,46.7,33.4c-11.6,15.1-23.1,30.2-34.2,45.4c32.6-5.2,65.2-9.6,98.1-13.1
						c-2.9-26.4-5.9-52.9-8.8-79.3C67.8,428,33.8,432.6,0,437.9z"/>
				</g>
				<g>
					<path class="st0" d="M68.2,482.1c14.3,7,28.4,14.2,42.3,21.4c-1.3-11.1-2.4-22-3.7-33.1C106.7,470.4,67.6,482.8,68.2,482.1z"/>
				</g>
				<g>
					<path class="st0" d="M682,437.9c-15.8,11-31.4,22.1-46.7,33.4c11.6,15.1,23.1,30.2,34.2,45.4c-32.6-5.2-65.2-9.6-98.1-13.1
						c2.9-26.4,5.9-52.9,8.8-79.3C614.2,428,648.2,432.6,682,437.9z"/>
				</g>
				<g>
					<path class="st0" d="M613.8,482.1c-14.3,7-28.4,14.2-42.3,21.4c1.3-11.1,2.4-22,3.7-33.1C575.3,470.4,614.4,482.8,613.8,482.1z
						"/>
				</g>
				<g>
					<path class="st0" d="M613.8,482.3c-181.3-23.4-364.9-23.4-546.2,0.1c-5-38.5-10-77-15-115.5c191.3-24.8,384.8-24.8,576.1-0.1
						C623.7,405.3,618.7,443.8,613.8,482.3z"/>
				</g>
			</g>
		</g>
	</g>
	<g>
		<g>
			<path class="st1" d="M0,421.7c15.8,11,31.4,22.1,46.7,33.4c-11.6,15.1-23.1,30.2-34.2,45.4c32.6-5.2,65.2-9.6,98.1-13.1
				c-2.9-26.4-5.9-52.9-8.8-79.3C67.8,411.8,33.8,416.4,0,421.7z"/>
		</g>
		<g>
			<path class="st0" d="M68.2,466c14.3,7,28.4,14.2,42.3,21.4c-1.3-11.1-2.4-22-3.7-33.1C106.7,454.2,67.6,466.7,68.2,466z"/>
		</g>
		<g>
			<path class="st1" d="M682,421.7c-15.8,11-31.4,22.1-46.7,33.4c11.6,15.1,23.1,30.2,34.2,45.4c-32.6-5.2-65.2-9.6-98.1-13.1
				c2.9-26.4,5.9-52.9,8.8-79.3C614.2,411.8,648.2,416.4,682,421.7z"/>
		</g>
		<g>
			<path class="st0" d="M613.8,466c-14.3,7-28.4,14.2-42.3,21.4c1.3-11.1,2.4-22,3.7-33.1C575.3,454.2,614.4,466.7,613.8,466z"/>
		</g>
		<g>
			<path class="st1" d="M613.8,466.1c-181.3-23.4-364.9-23.4-546.2,0.1c-5-38.5-10-77-15-115.5c191.3-24.8,384.8-24.8,576.1-0.1
				C623.7,389.1,618.7,427.6,613.8,466.1z"/>
		</g>
	</g>
	<g>
		<g>
			<path class="st0" d="M161.6,425.7c-2.1-23.2-4.2-46.3-6.3-69.5c17.2-1.5,34.4-2.9,51.6-4c0.3,5.2,0.5,7.8,0.8,13
				c-12,0.8-23.9,1.6-35.9,2.7c0.5,5.9,0.7,8.9,1.3,14.8c11.6-0.9,23.2-1.8,34.8-2.5c0.3,5.2,0.5,7.8,0.8,13
				c-11.5,0.7-23.1,1.6-34.6,2.5c0.6,6.3,0.8,9.5,1.3,15.8c11.6-0.9,23.4-1.8,35-2.5c0.3,5.2,0.5,7.8,0.8,13
				C194.8,422.9,178.2,424.3,161.6,425.7z"/>
			<path class="st0" d="M219.1,414.7c2.1-3.8,3.1-5.8,5.3-9.7c3.9,3.2,11.8,6.2,18.1,6c5.9-0.2,8.5-2.7,8.4-5.9
				c-0.1-3.5-5-4.2-10.6-5c-8.9-1.3-20.5-2.8-21.2-14.9c-0.5-8.4,6.8-16.4,20.5-17.1c8.9-0.5,16.1,2.2,21.4,6
				c-2.1,3.7-3.1,5.5-5.2,9.3c-3.2-3.1-9.3-5.4-15.7-5.2c-5,0.2-8.1,2.7-8,5.4c0.1,2.9,4.3,3.6,10.1,4.4c9,1.3,21,3.2,21.4,15.8
				c0.3,9.2-7.3,16.5-21.4,17.2C233.6,421.7,224.8,419.3,219.1,414.7z"/>
			<path class="st0" d="M288.8,411.8c0.2,10.3,0.3,15.4,0.7,25.7c-5.3,0.1-8,0.2-13.3,0.3c-0.8-23.3-1.5-46.6-2.3-69.7
				c5.5-0.2,8.3-0.2,13.8-0.3c0.1,2.5,0.1,3.8,0.1,6.3c3.9-5.1,9.7-8,16-8c13.9,0,23.5,12.8,23.4,26.2c-0.1,12.9-8,26.6-22.5,26.9
				C298.7,419.3,293,416.9,288.8,411.8z M313,392.5c-0.1-8.6-5.5-14.6-13.4-14.4c-4.4,0.1-9.5,2.8-11.6,6c0.2,7.1,0.2,10.7,0.5,17.9
				c2.3,3.1,7.4,5.5,11.8,5.5C308,407.3,313.1,401.3,313,392.5z"/>
			<path class="st0" d="M334.9,392.3c0-14.2,12.6-27.2,27.7-26.4c15.2,0.8,27.6,11.8,27.1,27c-0.3,15-12.7,25.6-27.8,26.1
				C346.9,419.5,334.9,406.3,334.9,392.3z M375.5,392.7c0.1-7.8-4.6-14.8-13.1-14.9c-8.5-0.1-13.3,6.7-13.4,14.5
				c0,8,4.6,14.8,13,14.9C370.4,407.3,375.4,400.6,375.5,392.7z"/>
			<path class="st0" d="M400,418.6c0.6-16.8,1-33.7,1.6-50.5c5.5,0.1,8.3,0.2,13.8,0.5c-0.1,2.8-0.1,4.2-0.2,6.9
				c3.8-4.4,10.5-7.7,17.1-7.5c-0.2,5.2-0.3,7.7-0.6,12.9c-0.9-0.2-2.3-0.5-3.8-0.5c-4.5-0.2-10.7,2.1-13,5.2
				c-0.5,11.1-0.8,22.2-1.3,33.3C408.1,418.9,405.4,418.7,400,418.6z"/>
			<path class="st0" d="M442.4,407.8c0.6-10.5,0.8-15.8,1.4-26.4c-3.5-0.2-5.2-0.2-8.6-0.5c0.2-4.6,0.3-6.9,0.6-11.6
				c3.5,0.1,5.2,0.2,8.6,0.5c0.3-5.5,0.5-8.3,0.7-13.8c5.5,0.3,8.4,0.5,13.9,0.8c-0.3,5.5-0.5,8.3-0.8,13.8
				c4.3,0.2,6.3,0.3,10.6,0.7c-0.3,4.6-0.5,6.9-0.7,11.6c-4.3-0.2-6.3-0.3-10.6-0.7c-0.6,9.1-0.8,13.7-1.4,22.8
				c-0.2,3.1,1.4,5.6,4.4,5.9c2.1,0.1,3.9-0.5,4.7-1.2c0.9,4,1.4,6.1,2.2,10.3c-2.1,1.6-5.8,2.9-11.4,2.5
				C446.8,421.9,442,416.8,442.4,407.8z"/>
			<path class="st0" d="M472,415.5c2.5-3.6,3.9-5.3,6.5-8.9c3.5,3.7,10.8,7.7,17.2,8.2c5.9,0.5,8.8-1.6,9-4.7
				c0.3-3.5-4.4-4.7-9.9-6.2c-8.8-2.3-20.1-5.3-19.1-17.5c0.6-8.4,8.8-15.3,22.6-14.3c8.9,0.7,15.7,4.3,20.5,8.6
				c-2.5,3.5-3.8,5.2-6.3,8.5c-2.9-3.5-8.5-6.6-14.9-7.1c-5-0.3-8.4,1.6-8.5,4.4c-0.2,2.9,3.8,4.2,9.5,5.6
				c8.8,2.4,20.4,5.9,19.3,18.4c-0.8,9.2-9.3,15.4-23.5,14.3C485.3,424.4,477,420.8,472,415.5z"/>
		</g>
	</g>
</g>
</svg>
